<svg width="52" height="61" viewBox="0 0 52 61" fill="none" xmlns="http://www.w3.org/2000/svg">
<path d="M25 60H2C1.50033 60 1.22617 59.9979 1.03598 59.9723C1.0335 59.972 1.03107 59.9716 1.02869 59.9713C1.02836 59.9689 1.02803 59.9665 1.02769 59.964C1.00212 59.7738 1 59.4997 1 59V5.27658C1 4.13401 1.00235 3.38638 1.07133 2.88605C1.07339 2.87111 1.07546 2.85673 1.07755 2.84289C1.08829 2.85187 1.09937 2.86126 1.11082 2.87108C1.4941 3.19999 1.99142 3.75823 2.74876 4.61375L25.7488 30.5952C25.8819 30.7457 25.9477 30.8208 25.9916 30.8781C25.9925 30.8792 25.9933 30.8802 25.9941 30.8813C25.9942 30.8826 25.9943 30.8839 25.9944 30.8853C25.9994 30.9573 26 31.0571 26 31.2581V59C26 59.4997 25.9979 59.7738 25.9723 59.964C25.972 59.9665 25.9716 59.9689 25.9713 59.9713C25.9689 59.9716 25.9665 59.972 25.964 59.9723C25.7738 59.9979 25.4997 60 25 60ZM1.15819 2.51705C1.15834 2.51743 1.15651 2.52146 1.15221 2.528C1.15588 2.51994 1.15803 2.51667 1.15819 2.51705ZM0.812924 2.6566C0.805372 2.65456 0.801328 2.65275 0.801194 2.65236C0.80106 2.65197 0.804836 2.653 0.812924 2.6566Z" fill="url(#paint0_linear)" stroke="url(#paint1_linear)" stroke-width="2"/>
<path d="M29 60H50C50.4997 60 50.7738 59.9979 50.964 59.9723C50.9665 59.972 50.9689 59.9716 50.9713 59.9713C50.9716 59.9689 50.972 59.9665 50.9723 59.964C50.9979 59.7738 51 59.4997 51 59V5.59493C51 4.39504 50.9977 3.60262 50.9261 3.0728C50.9238 3.05578 50.9215 3.03942 50.9191 3.0237C50.9074 3.03437 50.8952 3.04555 50.8826 3.05726C50.4913 3.4216 49.9873 4.03302 49.2266 4.96101L28.2266 30.581C28.1063 30.7278 28.0471 30.8008 28.0076 30.8562C28.0068 30.8573 28.0061 30.8583 28.0053 30.8594C28.0052 30.8606 28.0051 30.8619 28.0051 30.8633C28.0005 30.9311 28 31.0252 28 31.2149V59C28 59.4997 28.0021 59.7738 28.0277 59.964C28.028 59.9665 28.0284 59.9689 28.0287 59.9713C28.0311 59.9716 28.0335 59.972 28.036 59.9723C28.2262 59.9979 28.5003 60 29 60ZM50.8327 2.67321C50.8326 2.67359 50.8344 2.67763 50.8388 2.68418C50.8351 2.67611 50.8329 2.67283 50.8327 2.67321ZM51.1965 2.81204C51.204 2.80974 51.208 2.8078 51.2081 2.80741C51.2083 2.80701 51.2045 2.80816 51.1965 2.81204Z" fill="url(#paint2_linear)" stroke="url(#paint3_linear)" stroke-width="2"/>
<path d="M7.858 34.526C7.894 34.442 7.96 34.4 8.056 34.4H8.668C8.788 34.4 8.848 34.46 8.848 34.58V46.82C8.848 46.94 8.788 47 8.668 47H8.074C7.954 47 7.894 46.94 7.894 46.82V36.614C7.894 36.578 7.882 36.56 7.858 36.56C7.834 36.56 7.816 36.572 7.804 36.596L5.824 40.988C5.788 41.084 5.728 41.132 5.644 41.132C5.548 41.132 5.482 41.09 5.446 41.006L3.448 36.632C3.424 36.608 3.4 36.596 3.376 36.596C3.364 36.596 3.358 36.614 3.358 36.65V46.82C3.358 46.94 3.298 47 3.178 47H2.584C2.464 47 2.404 46.94 2.404 46.82V34.58C2.404 34.46 2.464 34.4 2.584 34.4H3.196C3.292 34.4 3.358 34.442 3.394 34.526L5.59 39.242C5.602 39.266 5.62 39.278 5.644 39.278C5.668 39.278 5.686 39.266 5.698 39.242L7.858 34.526ZM16.7801 42.626C16.9001 42.626 16.9601 42.686 16.9601 42.806V43.31C16.9601 43.43 16.9001 43.49 16.7801 43.49H16.2401C16.1921 43.49 16.1681 43.514 16.1681 43.562V46.82C16.1681 46.94 16.1081 47 15.9881 47H15.3941C15.2741 47 15.2141 46.94 15.2141 46.82V43.562C15.2141 43.514 15.1901 43.49 15.1421 43.49H10.8581C10.7381 43.49 10.6781 43.43 10.6781 43.31V42.842C10.6781 42.794 10.6901 42.722 10.7141 42.626L13.4861 34.544C13.5221 34.448 13.5941 34.4 13.7021 34.4H14.3501C14.4821 34.4 14.5301 34.466 14.4941 34.598L11.7941 42.536C11.7821 42.56 11.7821 42.584 11.7941 42.608C11.8061 42.62 11.8241 42.626 11.8481 42.626H15.1421C15.1901 42.626 15.2141 42.602 15.2141 42.554V39.566C15.2141 39.446 15.2741 39.386 15.3941 39.386H15.9881C16.1081 39.386 16.1681 39.446 16.1681 39.566V42.554C16.1681 42.602 16.1921 42.626 16.2401 42.626H16.7801ZM23.8984 47C23.7904 47 23.7184 46.952 23.6824 46.856L21.7024 41.15C21.6904 41.114 21.6664 41.096 21.6304 41.096H19.8484C19.8004 41.096 19.7764 41.12 19.7764 41.168V46.82C19.7764 46.94 19.7164 47 19.5964 47H19.0024C18.8824 47 18.8224 46.94 18.8224 46.82V34.58C18.8224 34.46 18.8824 34.4 19.0024 34.4H21.7924C22.6324 34.4 23.3104 34.712 23.8264 35.336C24.3424 35.96 24.6004 36.776 24.6004 37.784C24.6004 38.588 24.4264 39.272 24.0784 39.836C23.7304 40.4 23.2564 40.784 22.6564 40.988C22.6084 41 22.5904 41.03 22.6024 41.078L24.6364 46.802L24.6544 46.874C24.6544 46.958 24.6004 47 24.4924 47H23.8984ZM19.8484 35.246C19.8004 35.246 19.7764 35.27 19.7764 35.318V40.232C19.7764 40.28 19.8004 40.304 19.8484 40.304H21.6844C22.2724 40.304 22.7464 40.076 23.1064 39.62C23.4664 39.152 23.6464 38.54 23.6464 37.784C23.6464 37.016 23.4664 36.404 23.1064 35.948C22.7464 35.48 22.2724 35.246 21.6844 35.246H19.8484Z" fill="#212429"/>
<path d="M29.2542 47.144C28.3782 47.144 27.6702 46.874 27.1302 46.334C26.6022 45.782 26.3382 45.05 26.3382 44.138V37.226C26.3382 36.326 26.6022 35.606 27.1302 35.066C27.6702 34.526 28.3782 34.256 29.2542 34.256C30.1422 34.256 30.8502 34.526 31.3782 35.066C31.9182 35.606 32.1882 36.326 32.1882 37.226V37.568C32.1882 37.628 32.1702 37.676 32.1342 37.712C32.0982 37.748 32.0562 37.766 32.0082 37.766L31.4142 37.802C31.2942 37.802 31.2342 37.742 31.2342 37.622V37.172C31.2342 36.548 31.0542 36.05 30.6942 35.678C30.3342 35.294 29.8542 35.102 29.2542 35.102C28.6662 35.102 28.1922 35.294 27.8322 35.678C27.4722 36.05 27.2922 36.548 27.2922 37.172V44.21C27.2922 44.834 27.4722 45.338 27.8322 45.722C28.1922 46.106 28.6662 46.298 29.2542 46.298C29.8422 46.298 30.3162 46.106 30.6762 45.722C31.0482 45.338 31.2342 44.834 31.2342 44.21V43.796C31.2342 43.676 31.2942 43.616 31.4142 43.616L32.0082 43.652C32.1282 43.652 32.1882 43.712 32.1882 43.832V44.138C32.1882 45.05 31.9182 45.782 31.3782 46.334C30.8502 46.874 30.1422 47.144 29.2542 47.144ZM37.1455 47.18C36.2695 47.18 35.5615 46.892 35.0215 46.316C34.4815 45.74 34.2115 44.984 34.2115 44.048V37.352C34.2115 36.416 34.4815 35.66 35.0215 35.084C35.5615 34.508 36.2695 34.22 37.1455 34.22C38.0335 34.22 38.7475 34.508 39.2875 35.084C39.8275 35.66 40.0975 36.416 40.0975 37.352V44.048C40.0975 44.984 39.8275 45.74 39.2875 46.316C38.7475 46.892 38.0335 47.18 37.1455 47.18ZM37.1455 46.316C37.7455 46.316 38.2255 46.118 38.5855 45.722C38.9575 45.314 39.1435 44.78 39.1435 44.12V37.28C39.1435 36.62 38.9575 36.092 38.5855 35.696C38.2255 35.288 37.7455 35.084 37.1455 35.084C36.5575 35.084 36.0775 35.288 35.7055 35.696C35.3455 36.092 35.1655 36.62 35.1655 37.28V44.12C35.1655 44.78 35.3455 45.314 35.7055 45.722C36.0775 46.118 36.5575 46.316 37.1455 46.316ZM47.7004 43.922C47.7004 44.774 47.4904 45.482 47.0704 46.046C46.6624 46.61 46.1104 46.958 45.4144 47.09C45.3664 47.102 45.3424 47.132 45.3424 47.18V48.476C45.3424 48.596 45.2824 48.656 45.1624 48.656H44.7664C44.6464 48.656 44.5864 48.596 44.5864 48.476L44.6044 47.216C44.6044 47.168 44.5804 47.144 44.5324 47.144C43.7524 47.072 43.1284 46.754 42.6604 46.19C42.1924 45.614 41.9584 44.882 41.9584 43.994V43.616C41.9584 43.496 42.0184 43.436 42.1384 43.436H42.7144C42.8344 43.436 42.8944 43.496 42.8944 43.616V43.958C42.8944 44.666 43.0684 45.236 43.4164 45.668C43.7764 46.1 44.2384 46.316 44.8024 46.316C45.3664 46.316 45.8344 46.106 46.2064 45.686C46.5784 45.266 46.7644 44.72 46.7644 44.048C46.7644 43.604 46.6744 43.22 46.4944 42.896C46.3264 42.572 46.1044 42.296 45.8284 42.068C45.5644 41.828 45.1264 41.474 44.5144 41.006C43.8904 40.538 43.4104 40.154 43.0744 39.854C42.7504 39.542 42.4804 39.176 42.2644 38.756C42.0484 38.324 41.9404 37.814 41.9404 37.226C41.9404 36.362 42.1684 35.666 42.6244 35.138C43.0924 34.61 43.7044 34.316 44.4604 34.256C44.5084 34.256 44.5324 34.232 44.5324 34.184L44.5144 32.816C44.5144 32.696 44.5744 32.636 44.6944 32.636H45.0904C45.2104 32.636 45.2704 32.696 45.2704 32.816V34.238C45.2704 34.286 45.2944 34.316 45.3424 34.328C46.0384 34.46 46.5904 34.808 46.9984 35.372C47.4064 35.924 47.6104 36.62 47.6104 37.46V37.91C47.6104 38.03 47.5504 38.09 47.4304 38.09H46.8364C46.7164 38.09 46.6564 38.03 46.6564 37.91V37.46C46.6564 36.752 46.4764 36.182 46.1164 35.75C45.7684 35.306 45.3004 35.084 44.7124 35.084C44.1844 35.084 43.7464 35.276 43.3984 35.66C43.0504 36.032 42.8764 36.56 42.8764 37.244C42.8764 37.652 42.9484 38.006 43.0924 38.306C43.2484 38.606 43.4644 38.888 43.7404 39.152C44.0284 39.416 44.4604 39.764 45.0364 40.196C45.7444 40.724 46.2724 41.15 46.6204 41.474C46.9684 41.798 47.2324 42.152 47.4124 42.536C47.6044 42.92 47.7004 43.382 47.7004 43.922ZM50.1337 46.928C49.8697 46.928 49.6537 46.844 49.4857 46.676C49.3177 46.508 49.2337 46.292 49.2337 46.028C49.2337 45.764 49.3177 45.548 49.4857 45.38C49.6537 45.212 49.8697 45.128 50.1337 45.128C50.3977 45.128 50.6137 45.212 50.7817 45.38C50.9497 45.548 51.0337 45.764 51.0337 46.028C51.0337 46.292 50.9497 46.508 50.7817 46.676C50.6137 46.844 50.3977 46.928 50.1337 46.928Z" fill="white"/>
<defs>
<linearGradient id="paint0_linear" x1="13.5" y1="0" x2="13.5" y2="61" gradientUnits="userSpaceOnUse">
<stop stop-color="#FDFDFD" stop-opacity="0"/>
<stop offset="1" stop-color="#FDFDFD"/>
</linearGradient>
<linearGradient id="paint1_linear" x1="13.5" y1="0" x2="13.5" y2="61" gradientUnits="userSpaceOnUse">
<stop stop-color="#FDFDFD" stop-opacity="0"/>
<stop offset="1" stop-color="#FDFDFD"/>
</linearGradient>
<linearGradient id="paint2_linear" x1="27" y1="0" x2="69.8095" y2="17.5449" gradientUnits="userSpaceOnUse">
<stop stop-color="#2DC7ED"/>
<stop offset="1" stop-color="#538BF0" stop-opacity="0"/>
</linearGradient>
<linearGradient id="paint3_linear" x1="27" y1="0" x2="69.8095" y2="17.5449" gradientUnits="userSpaceOnUse">
<stop stop-color="#538BF0" stop-opacity="0"/>
<stop offset="1" stop-color="#2DC7ED"/>
</linearGradient>
</defs>
</svg>
